<svg xmlns="http://www.w3.org/2000/svg" viewBox="0 0 720 720">
  <rect width="720" height="720" rx="150" fill="#0d0d0d"/>
  <g transform="translate(-146.5,-114.5) scale(0.8) translate(0,1254) scale(0.1,-0.1)" fill="#ffffff" stroke="#ffffff" stroke-width="550" stroke-linejoin="round">
    <path d="M6315 9644 c-517 -40 -860 -130 -1270 -335 -213 -107 -359 -199 -540 -343 -317 -252 -598 -577 -812 -941 -44 -75 -167 -318 -202 -400 -12 -27 -26 -59 -31 -70 -63 -140 -150 -421 -194 -625 -91 -425 -107 -835 -51 -1369 13 -126 22 -162 32 -133 12 33 127 196 197 280 l78 92 2 308 c3 325 13 426 62 672 45 223 98 405 171 585 51 127 181 394 218 449 14 20 25 39 25 42 0 8 188 282 231 337 205 260 476 507 743 676 596 379 1342 522 2026 390 266 -52 444 -111 675 -224 255 -125 483 -282 660 -454 l70 -68 85 -7 c107 -8 267 -23 344 -32 l60 -7 -24 34 c-85 121 -317 361 -474 488 -181 147 -448 308 -676 409 -261 114 -581 198 -883 232 -99 10 -445 20 -522 14z"/>
    <path d="M7936 8220 c-135 -17 -263 -51 -406 -107 -241 -95 -488 -279 -677 -506 -69 -84 -212 -292 -265 -387 -88 -157 -221 -379 -281 -469 -320 -477 -646 -743 -1077 -876 -148 -46 -338 -81 -570 -105 -185 -19 -323 -41 -420 -67 -527 -139 -881 -588 -857 -1083 10 -192 36 -292 124 -465 97 -192 289 -376 488 -470 205 -96 443 -135 699 -115 297 24 573 128 1021 388 345 200 521 290 710 364 65 25 211 77 250 88 222 64 427 104 665 130 443 47 534 65 750 142 112 40 326 144 420 204 473 302 802 753 929 1274 90 368 76 791 -36 1120 -161 476 -551 823 -1038 925 -92 20 -327 28 -429 15z m372 -356 c380 -76 684 -362 797 -749 40 -138 56 -236 62 -395 13 -357 -90 -715 -295 -1020 -198 -295 -511 -546 -849 -681 -151 -61 -380 -109 -588 -124 -313 -23 -662 -92 -970 -194 -263 -87 -539 -219 -843 -402 -63 -38 -116 -69 -118 -69 -2 0 -23 -12 -45 -26 -65 -41 -286 -148 -397 -193 -173 -70 -277 -93 -440 -98 -216 -8 -341 16 -501 95 -193 96 -329 266 -392 492 -22 78 -17 253 10 340 74 245 247 416 516 513 68 24 250 60 370 72 341 36 507 65 689 120 512 155 904 462 1250 979 84 125 168 260 179 286 17 40 230 391 287 473 81 115 271 308 370 374 155 104 331 177 499 207 106 20 314 20 409 0z"/>
  </g>
</svg>
